<mxfile host="app.diagrams.net" agent="Mozilla/5.0 (Windows NT 10.0; Win64; x64) AppleWebKit/537.36 (KHTML, like Gecko) Chrome/132.0.0.0 YaBrowser/25.2.0.0 Safari/537.36" version="26.2.13">
  <diagram name="Страница — 1" id="4hH5kpc3q2AV9N2XDJlf">
    <mxGraphModel dx="1428" dy="764" grid="1" gridSize="10" guides="1" tooltips="1" connect="1" arrows="1" fold="1" page="1" pageScale="1" pageWidth="827" pageHeight="1169" math="0" shadow="0">
      <root>
        <mxCell id="0" />
        <mxCell id="1" parent="0" />
        <mxCell id="baWYEHKCs7DE92Z_P3L--1" value="Пользователь" style="shape=umlLifeline;perimeter=lifelinePerimeter;whiteSpace=wrap;html=1;container=1;dropTarget=0;collapsible=0;recursiveResize=0;outlineConnect=0;portConstraint=eastwest;newEdgeStyle={&quot;curved&quot;:0,&quot;rounded&quot;:0};" vertex="1" parent="1">
          <mxGeometry x="110" y="100" width="100" height="510" as="geometry" />
        </mxCell>
        <mxCell id="baWYEHKCs7DE92Z_P3L--4" value="" style="html=1;points=[[0,0,0,0,5],[0,1,0,0,-5],[1,0,0,0,5],[1,1,0,0,-5]];perimeter=orthogonalPerimeter;outlineConnect=0;targetShapes=umlLifeline;portConstraint=eastwest;newEdgeStyle={&quot;curved&quot;:0,&quot;rounded&quot;:0};" vertex="1" parent="baWYEHKCs7DE92Z_P3L--1">
          <mxGeometry x="45" y="60" width="10" height="440" as="geometry" />
        </mxCell>
        <mxCell id="baWYEHKCs7DE92Z_P3L--2" value="Приложение" style="shape=umlLifeline;perimeter=lifelinePerimeter;whiteSpace=wrap;html=1;container=1;dropTarget=0;collapsible=0;recursiveResize=0;outlineConnect=0;portConstraint=eastwest;newEdgeStyle={&quot;curved&quot;:0,&quot;rounded&quot;:0};" vertex="1" parent="1">
          <mxGeometry x="350" y="100" width="100" height="510" as="geometry" />
        </mxCell>
        <mxCell id="baWYEHKCs7DE92Z_P3L--5" value="" style="html=1;points=[[0,0,0,0,5],[0,1,0,0,-5],[1,0,0,0,5],[1,1,0,0,-5]];perimeter=orthogonalPerimeter;outlineConnect=0;targetShapes=umlLifeline;portConstraint=eastwest;newEdgeStyle={&quot;curved&quot;:0,&quot;rounded&quot;:0};" vertex="1" parent="baWYEHKCs7DE92Z_P3L--2">
          <mxGeometry x="45" y="60" width="10" height="440" as="geometry" />
        </mxCell>
        <mxCell id="baWYEHKCs7DE92Z_P3L--8" value="2. Обрабатывает запрос&lt;div&gt;пользователя&lt;/div&gt;" style="html=1;verticalAlign=bottom;endArrow=block;curved=0;rounded=0;" edge="1" parent="baWYEHKCs7DE92Z_P3L--2" source="baWYEHKCs7DE92Z_P3L--5" target="baWYEHKCs7DE92Z_P3L--5">
          <mxGeometry x="-0.2667" y="30" width="80" relative="1" as="geometry">
            <mxPoint x="80" y="90" as="sourcePoint" />
            <mxPoint x="160" y="90" as="targetPoint" />
            <Array as="points">
              <mxPoint x="110" y="100" />
              <mxPoint x="110" y="140" />
            </Array>
            <mxPoint as="offset" />
          </mxGeometry>
        </mxCell>
        <mxCell id="baWYEHKCs7DE92Z_P3L--11" value="3.1. Применяет команду" style="html=1;verticalAlign=bottom;endArrow=block;curved=0;rounded=0;" edge="1" parent="baWYEHKCs7DE92Z_P3L--2" source="baWYEHKCs7DE92Z_P3L--5" target="baWYEHKCs7DE92Z_P3L--5">
          <mxGeometry x="-0.3077" y="30" width="80" relative="1" as="geometry">
            <mxPoint x="80" y="190" as="sourcePoint" />
            <mxPoint x="160" y="190" as="targetPoint" />
            <Array as="points">
              <mxPoint x="100" y="180" />
              <mxPoint x="100" y="220" />
            </Array>
            <mxPoint as="offset" />
          </mxGeometry>
        </mxCell>
        <mxCell id="baWYEHKCs7DE92Z_P3L--3" value="АПИ" style="shape=umlLifeline;perimeter=lifelinePerimeter;whiteSpace=wrap;html=1;container=1;dropTarget=0;collapsible=0;recursiveResize=0;outlineConnect=0;portConstraint=eastwest;newEdgeStyle={&quot;curved&quot;:0,&quot;rounded&quot;:0};" vertex="1" parent="1">
          <mxGeometry x="550" y="100" width="100" height="500" as="geometry" />
        </mxCell>
        <mxCell id="baWYEHKCs7DE92Z_P3L--6" value="" style="html=1;points=[[0,0,0,0,5],[0,1,0,0,-5],[1,0,0,0,5],[1,1,0,0,-5]];perimeter=orthogonalPerimeter;outlineConnect=0;targetShapes=umlLifeline;portConstraint=eastwest;newEdgeStyle={&quot;curved&quot;:0,&quot;rounded&quot;:0};" vertex="1" parent="baWYEHKCs7DE92Z_P3L--3">
          <mxGeometry x="45" y="340" width="10" height="80" as="geometry" />
        </mxCell>
        <mxCell id="baWYEHKCs7DE92Z_P3L--7" value="1. Говорит" style="html=1;verticalAlign=bottom;endArrow=block;curved=0;rounded=0;" edge="1" parent="1">
          <mxGeometry width="80" relative="1" as="geometry">
            <mxPoint x="165" y="180" as="sourcePoint" />
            <mxPoint x="395" y="180" as="targetPoint" />
          </mxGeometry>
        </mxCell>
        <mxCell id="baWYEHKCs7DE92Z_P3L--9" value="Если это команда" style="shape=umlFrame;whiteSpace=wrap;html=1;pointerEvents=0;width=90;height=30;" vertex="1" parent="1">
          <mxGeometry x="40" y="250" width="640" height="170" as="geometry" />
        </mxCell>
        <mxCell id="baWYEHKCs7DE92Z_P3L--10" value="иначе" style="shape=umlFrame;whiteSpace=wrap;html=1;pointerEvents=0;width=90;height=30;" vertex="1" parent="1">
          <mxGeometry x="40" y="420" width="640" height="170" as="geometry" />
        </mxCell>
        <mxCell id="baWYEHKCs7DE92Z_P3L--12" value="3.2. Отвечает пользователю" style="html=1;verticalAlign=bottom;endArrow=block;curved=0;rounded=0;" edge="1" parent="1" source="baWYEHKCs7DE92Z_P3L--5" target="baWYEHKCs7DE92Z_P3L--4">
          <mxGeometry width="80" relative="1" as="geometry">
            <mxPoint x="220" y="310" as="sourcePoint" />
            <mxPoint x="300" y="310" as="targetPoint" />
            <Array as="points">
              <mxPoint x="280" y="360" />
            </Array>
          </mxGeometry>
        </mxCell>
        <mxCell id="baWYEHKCs7DE92Z_P3L--13" value="4.1. Отправляет запрос" style="html=1;verticalAlign=bottom;endArrow=block;rounded=0;" edge="1" parent="1" source="baWYEHKCs7DE92Z_P3L--5" target="baWYEHKCs7DE92Z_P3L--6">
          <mxGeometry width="80" relative="1" as="geometry">
            <mxPoint x="415" y="290" as="sourcePoint" />
            <mxPoint x="415" y="330" as="targetPoint" />
            <Array as="points">
              <mxPoint x="500" y="460" />
            </Array>
            <mxPoint as="offset" />
          </mxGeometry>
        </mxCell>
        <mxCell id="baWYEHKCs7DE92Z_P3L--14" value="4.2. Отправляет ответ" style="html=1;verticalAlign=bottom;endArrow=block;curved=0;rounded=0;" edge="1" parent="1" source="baWYEHKCs7DE92Z_P3L--6" target="baWYEHKCs7DE92Z_P3L--5">
          <mxGeometry width="80" relative="1" as="geometry">
            <mxPoint x="440" y="530" as="sourcePoint" />
            <mxPoint x="520" y="530" as="targetPoint" />
            <Array as="points">
              <mxPoint x="500" y="500" />
            </Array>
          </mxGeometry>
        </mxCell>
        <mxCell id="baWYEHKCs7DE92Z_P3L--15" value="4.3. Отвечает пользователю" style="html=1;verticalAlign=bottom;endArrow=block;curved=0;rounded=0;" edge="1" parent="1" source="baWYEHKCs7DE92Z_P3L--5" target="baWYEHKCs7DE92Z_P3L--4">
          <mxGeometry width="80" relative="1" as="geometry">
            <mxPoint x="400" y="540" as="sourcePoint" />
            <mxPoint x="170" y="540" as="targetPoint" />
            <Array as="points">
              <mxPoint x="285" y="540" />
            </Array>
          </mxGeometry>
        </mxCell>
      </root>
    </mxGraphModel>
  </diagram>
</mxfile>
